<?xml version="1.0" standalone="no"?>
<!DOCTYPE svg PUBLIC "-//W3C//DTD SVG 20010904//EN"
 "http://www.w3.org/TR/2001/REC-SVG-20010904/DTD/svg10.dtd">
<svg version="1.0" xmlns="http://www.w3.org/2000/svg"
   viewBox="0 0 1176.000000 984.000000"
 preserveAspectRatio="xMidYMid meet">
<metadata>
Created by potrace 1.16, written by Peter Selinger 2001-2019
</metadata>
<g transform="translate(0.000000,984.000000) scale(0.100000,-0.100000)"
fill="#000000" stroke="none">
<path d="M1171 9243 c-34 -32 -169 -265 -241 -415 -98 -207 -135 -387 -126
-633 3 -117 10 -171 30 -245 46 -174 79 -254 175 -423 111 -197 315 -410 470
-489 l44 -22 -7 -71 c-27 -298 -17 -498 29 -622 57 -151 201 -289 335 -322 3
0 30 -10 60 -21 49 -18 79 -20 282 -20 143 0 229 4 233 10 4 6 10 8 15 5 5 -3
17 -1 27 4 10 5 59 15 108 21 104 13 268 44 340 65 28 7 88 23 134 35 46 12
93 26 105 30 12 5 66 21 121 36 55 15 160 46 233 70 172 57 399 122 582 169
232 59 219 57 362 80 49 7 91 16 96 19 4 2 35 7 67 11 33 3 71 10 85 15 14 4
48 11 75 15 28 3 97 12 155 20 311 41 469 50 920 50 503 0 627 -9 1105 -75
170 -24 683 -133 750 -160 11 -4 74 -22 140 -40 66 -17 194 -56 285 -85 147
-48 393 -121 535 -160 28 -7 75 -21 105 -29 30 -9 75 -19 100 -22 25 -4 56
-10 69 -15 13 -5 74 -17 135 -25 143 -20 146 -21 176 -30 44 -14 430 -17 490
-3 87 18 170 47 220 76 73 42 156 137 200 227 61 126 72 206 66 453 -2 114 -7
226 -11 248 -6 38 -4 42 22 55 158 80 358 283 472 478 84 144 111 202 151 322
47 140 62 217 67 347 10 247 -32 465 -129 658 -76 151 -220 395 -245 415 -31
24 -94 26 -128 4 -34 -22 -60 -95 -47 -132 5 -15 42 -82 82 -148 128 -213 204
-383 236 -534 18 -87 18 -273 -2 -368 -47 -235 -194 -512 -357 -675 -62 -62
-213 -177 -231 -177 -4 0 -25 -9 -49 -19 -99 -46 -163 -56 -357 -55 -164 0
-291 12 -440 40 -14 2 -38 7 -55 10 -16 3 -88 21 -160 41 -71 19 -143 39 -160
43 -16 5 -68 20 -115 35 -47 15 -114 35 -150 45 -36 10 -120 37 -185 59 -101
35 -165 54 -325 96 -252 65 -512 126 -622 145 -29 5 -118 21 -198 35 -290 50
-635 87 -985 106 -203 11 -970 7 -1050 -5 -16 -2 -55 -5 -85 -6 -80 -3 -494
-51 -650 -76 -149 -23 -454 -82 -570 -109 -219 -50 -483 -119 -555 -144 -90
-30 -425 -135 -520 -161 -60 -17 -146 -42 -190 -55 -44 -13 -93 -25 -110 -28
-16 -2 -76 -14 -131 -26 -140 -29 -339 -51 -464 -51 -326 1 -556 135 -774 455
-72 105 -153 282 -183 401 -25 97 -28 127 -28 269 0 153 1 165 33 265 41 130
57 170 97 240 214 371 209 361 200 406 -16 88 -121 125 -184 67z m5279 -1678
c215 -14 434 -36 565 -56 216 -32 503 -83 595 -104 8 -2 76 -18 150 -35 178
-40 416 -103 510 -134 41 -13 143 -45 225 -71 83 -26 191 -59 240 -75 50 -16
149 -42 220 -59 72 -17 144 -35 160 -40 33 -10 71 -18 125 -27 246 -38 328
-47 470 -51 113 -3 177 0 202 8 20 6 54 12 75 13 l38 1 8 -60 c10 -83 8 -286
-4 -364 -19 -123 -85 -228 -171 -272 -42 -21 -50 -24 -133 -41 -64 -13 -370
-3 -490 16 -212 34 -509 105 -730 176 -66 21 -194 61 -285 90 -501 160 -986
267 -1428 316 -81 8 -156 20 -167 25 -46 21 -840 35 -1150 19 -132 -6 -251
-13 -265 -15 -14 -2 -90 -11 -170 -20 -324 -34 -805 -123 -1055 -193 -38 -11
-106 -30 -150 -42 -44 -12 -87 -24 -95 -28 -19 -7 -17 -6 -70 -21 -67 -18
-232 -70 -255 -80 -38 -17 -242 -76 -485 -142 -329 -88 -733 -132 -915 -98
-156 29 -243 120 -283 296 -14 64 -16 106 -11 238 7 198 10 209 53 200 17 -4
42 -9 56 -12 52 -12 339 -14 406 -3 74 11 238 37 293 45 19 3 50 10 70 15 32
8 105 26 301 75 36 9 99 27 140 41 41 13 84 26 95 28 11 2 74 22 140 44 277
91 564 172 743 207 41 8 78 17 82 20 15 9 403 79 605 109 151 22 473 55 630
65 236 14 880 12 1115 -4z"/>
<path d="M4945 2264 c-45 -5 -193 -48 -242 -70 -17 -8 -36 -14 -41 -14 -15 0
-208 -102 -232 -123 -11 -9 -23 -17 -26 -17 -7 0 -102 -68 -122 -87 -8 -8 -30
-26 -50 -41 -21 -15 -39 -29 -42 -32 -3 -3 -39 -34 -80 -70 -41 -36 -79 -70
-85 -75 -24 -26 -156 -136 -218 -184 -129 -97 -243 -163 -347 -201 -36 -13
-70 -27 -77 -32 -19 -15 -134 -30 -233 -30 -91 1 -159 16 -174 41 -4 5 -19 12
-35 16 -38 8 -123 98 -153 161 -19 41 -23 65 -23 145 0 85 3 102 29 152 50
100 136 145 254 134 64 -6 127 -36 179 -84 19 -18 36 -33 39 -33 14 0 -1 66
-30 126 -42 89 -98 138 -193 170 -128 44 -270 21 -395 -63 -94 -63 -145 -127
-209 -264 -31 -66 -44 -151 -44 -284 0 -146 15 -233 56 -322 10 -24 19 -46 19
-49 0 -3 29 -47 64 -98 61 -87 152 -184 206 -219 14 -9 45 -30 68 -47 52 -36
258 -140 322 -162 25 -9 79 -26 120 -38 41 -12 89 -26 106 -31 17 -5 43 -9 57
-9 15 0 35 -4 45 -9 60 -31 490 -51 682 -31 291 31 469 60 508 83 4 3 23 8 43
11 20 3 42 7 50 10 8 2 48 14 89 26 41 12 89 28 107 36 17 8 34 14 38 14 4 0
23 7 43 16 21 9 53 23 72 32 132 56 300 146 355 187 17 14 37 25 43 25 6 0 12
3 14 8 2 4 20 20 41 35 78 59 221 205 267 272 26 39 55 76 63 83 18 15 19 14
76 -71 21 -32 61 -82 87 -110 72 -76 219 -202 272 -233 26 -15 49 -30 52 -33
7 -9 40 -28 80 -48 19 -9 51 -26 70 -38 49 -30 318 -142 382 -159 29 -8 73
-21 98 -29 42 -15 158 -42 275 -66 271 -54 581 -73 805 -47 173 20 370 54 385
66 5 4 39 16 75 25 36 9 97 32 137 51 40 19 79 34 87 34 8 0 17 4 20 9 3 4 45
31 93 59 49 28 102 63 118 77 47 41 127 120 159 157 30 35 116 163 116 172 0
4 8 25 19 49 62 141 80 349 42 496 -24 92 -88 223 -138 280 -44 52 -140 117
-197 133 -23 6 -46 15 -52 20 -21 16 -150 21 -205 8 -136 -32 -222 -111 -273
-248 -28 -76 -21 -79 49 -21 72 59 112 76 193 78 155 4 262 -96 279 -262 9
-91 -25 -181 -99 -262 -34 -36 -74 -69 -93 -77 -19 -6 -35 -15 -35 -19 0 -17
-103 -33 -205 -33 -97 1 -121 5 -205 34 -247 85 -356 160 -765 529 -38 35 -86
74 -105 87 -19 13 -64 45 -100 71 -155 112 -228 149 -431 218 -182 61 -506 59
-678 -5 -138 -52 -192 -87 -299 -199 l-72 -76 -56 63 c-89 99 -167 153 -284
197 -25 9 -54 21 -65 25 -56 24 -117 31 -300 35 -110 1 -218 1 -240 -1z"/>
</g>
</svg>
